<svg width="30" height="30" viewBox="0 0 30 30" fill="none" xmlns="http://www.w3.org/2000/svg">
<circle cx="15" cy="15" r="15" fill="#0165B1"/>
<path d="M15.1068 21.9139C10.8765 21.9139 7.44727 18.4847 7.44727 14.2543C7.44727 10.0239 10.8765 6.59473 15.1068 6.59473C19.3372 6.59473 22.7664 10.0239 22.7664 14.2543C22.7664 18.4847 19.3372 21.9139 15.1068 21.9139ZM11.2771 14.2543C11.2771 15.27 11.6805 16.2441 12.3988 16.9624C13.117 17.6806 14.0911 18.0841 15.1068 18.0841C16.1226 18.0841 17.0967 17.6806 17.8149 16.9624C18.5331 16.2441 18.9366 15.27 18.9366 14.2543H17.4047C17.4047 14.8637 17.1626 15.4482 16.7317 15.8791C16.3007 16.3101 15.7163 16.5522 15.1068 16.5522C14.4974 16.5522 13.9129 16.3101 13.482 15.8791C13.0511 15.4482 12.809 14.8637 12.809 14.2543H11.2771Z" fill="#74C3F9"/>
<path d="M23.9355 26.9133C23.1908 27.6579 19.9934 29.9984 14.9993 29.9984C10.0052 29.9984 7.76525 28.2962 7.12695 27.6579C7.12695 24.4665 10.0052 22.7646 14.9993 22.7646C19.9934 22.7646 23.9355 23.7221 23.9355 26.9133Z" fill="#74C3F9"/>
<circle cx="12.1284" cy="11.7026" r="0.851064" fill="#0165B1"/>
<circle cx="17.8725" cy="11.7026" r="0.851064" fill="#0165B1"/>
</svg>
